<?xml version="1.0" encoding="us-ascii" standalone="no"?><svg xmlns="http://www.w3.org/2000/svg" xmlns:xlink="http://www.w3.org/1999/xlink" contentStyleType="text/css" height="210px" preserveAspectRatio="none" style="width:664px;height:210px;background:#FFFFFF;" version="1.1" viewBox="0 0 664 210" width="664px" zoomAndPan="magnify"><defs/><g><!--cluster PostgreSQL--><g id="cluster_PostgreSQL"><path d="M8.5,6 L92.5,6 A3.75,3.75 0 0 1 95,8.5 L102,28.4883 L237.5,28.4883 A2.5,2.5 0 0 1 240,30.9883 L240,201.43 A2.5,2.5 0 0 1 237.5,203.93 L8.5,203.93 A2.5,2.5 0 0 1 6,201.43 L6,8.5 A2.5,2.5 0 0 1 8.5,6 " fill="none" style="stroke:#000000;stroke-width:1.5;"/><line style="stroke:#000000;stroke-width:1.5;" x1="6" x2="102" y1="28.4883" y2="28.4883"/><text fill="#000000" font-family="sans-serif" font-size="14" font-weight="bold" lengthAdjust="spacing" textLength="83" x="10" y="21.5352">PostgreSQL</text></g><!--cluster Redis--><g id="cluster_Redis"><path d="M266.5,18.18 L307.5,18.18 A3.75,3.75 0 0 1 310,20.68 L317,40.6683 L654.5,40.6683 A2.5,2.5 0 0 1 657,43.1683 L657,189.25 A2.5,2.5 0 0 1 654.5,191.75 L266.5,191.75 A2.5,2.5 0 0 1 264,189.25 L264,20.68 A2.5,2.5 0 0 1 266.5,18.18 " fill="none" style="stroke:#000000;stroke-width:1.5;"/><line style="stroke:#000000;stroke-width:1.5;" x1="264" x2="317" y1="40.6683" y2="40.6683"/><text fill="#000000" font-family="sans-serif" font-size="14" font-weight="bold" lengthAdjust="spacing" textLength="40" x="268" y="33.7152">Redis</text></g><!--class users--><g id="elem_users"><rect codeLine="5" fill="#F1F1F1" height="146.9297" id="users" rx="2.5" ry="2.5" style="stroke:#181818;stroke-width:0.5;" width="203" x="21.5" y="41"/><ellipse cx="100.25" cy="57" fill="#FFAAAA" rx="11" ry="11" style="stroke:#181818;stroke-width:1.0;"/><path d="M101.5918,64.25 L99.1431,64.25 L99.1431,53.9985 L95.9971,53.9985 L95.9971,51.8569 L104.7378,51.8569 L104.7378,53.9985 L101.5918,53.9985 Z " fill="#000000"/><text fill="#000000" font-family="sans-serif" font-size="14" lengthAdjust="spacing" textLength="37" x="120.75" y="62.291">users</text><line style="stroke:#181818;stroke-width:0.5;" x1="22.5" x2="223.5" y1="73" y2="73"/><text fill="#000000" font-family="sans-serif" font-size="14" lengthAdjust="spacing" textLength="90" x="27.5" y="90.5352">id : UUID [PK]</text><text fill="#000000" font-family="sans-serif" font-size="14" lengthAdjust="spacing" textLength="191" x="27.5" y="107.0234">username : string &#171;UNIQUE&#187;</text><text fill="#000000" font-family="sans-serif" font-size="14" lengthAdjust="spacing" textLength="156" x="27.5" y="123.5117">email: string &#171;UNIQUE&#187;</text><text fill="#000000" font-family="sans-serif" font-size="14" lengthAdjust="spacing" textLength="158" x="27.5" y="140">password_hash : string</text><text fill="#000000" font-family="sans-serif" font-size="14" lengthAdjust="spacing" textLength="155" x="27.5" y="156.4883">created_at : timestamp</text><text fill="#000000" font-family="sans-serif" font-size="14" lengthAdjust="spacing" textLength="161" x="27.5" y="172.9766">updated_at : timestamp</text><line style="stroke:#181818;stroke-width:0.5;" x1="22.5" x2="223.5" y1="179.9297" y2="179.9297"/></g><!--class pomodoroSettings--><g id="elem_pomodoroSettings"><rect codeLine="16" fill="#F1F1F1" height="122.5742" id="pomodoroSettings" rx="2.5" ry="2.5" style="stroke:#181818;stroke-width:0.5;" width="181" x="280.5" y="53.18"/><ellipse cx="304.95" cy="73.4905" fill="#ADD1B2" rx="11" ry="11" style="stroke:#181818;stroke-width:1.0;"/><path d="M307.4231,79.6336 Q306.8421,79.9324 306.2029,80.0819 Q305.5638,80.2313 304.8582,80.2313 Q302.3514,80.2313 301.0315,78.5794 Q299.7117,76.9276 299.7117,73.8065 Q299.7117,70.6771 301.0315,69.0252 Q302.3514,67.3734 304.8582,67.3734 Q305.5638,67.3734 306.2112,67.5228 Q306.8587,67.6722 307.4231,67.971 L307.4231,70.6937 Q306.7923,70.1126 306.1988,69.8428 Q305.6053,69.5731 304.9744,69.5731 Q303.6297,69.5731 302.9449,70.6397 Q302.2601,71.7064 302.2601,73.8065 Q302.2601,75.8983 302.9449,76.9649 Q303.6297,78.0316 304.9744,78.0316 Q305.6053,78.0316 306.1988,77.7618 Q306.7923,77.492 307.4231,76.911 Z " fill="#000000"/><text fill="#000000" font-family="sans-serif" font-size="12" font-style="italic" lengthAdjust="spacing" textLength="39" x="365.55" y="69.7816">&#171;hash&#187;</text><text fill="#000000" font-family="sans-serif" font-size="14" lengthAdjust="spacing" textLength="128" x="321.05" y="85.848">pomodoroSettings</text><line style="stroke:#181818;stroke-width:0.5;" x1="281.5" x2="460.5" y1="93.8011" y2="93.8011"/><text fill="#000000" font-family="sans-serif" font-size="14" lengthAdjust="spacing" textLength="133" x="286.5" y="111.3363">longBreakTime : int</text><text fill="#000000" font-family="sans-serif" font-size="14" lengthAdjust="spacing" textLength="98" x="286.5" y="127.8245">workTime : int</text><text fill="#000000" font-family="sans-serif" font-size="14" lengthAdjust="spacing" textLength="138" x="286.5" y="144.3128">shortBreakTime : int</text><text fill="#000000" font-family="sans-serif" font-size="14" lengthAdjust="spacing" textLength="169" x="286.5" y="160.8011">sessionSequence : string</text><line style="stroke:#181818;stroke-width:0.5;" x1="281.5" x2="460.5" y1="167.7542" y2="167.7542"/></g><!--class systemState--><g id="elem_systemState"><rect codeLine="23" fill="#F1F1F1" height="106.0859" id="systemState" rx="2.5" ry="2.5" style="stroke:#181818;stroke-width:0.5;" width="144" x="497" y="61.42"/><ellipse cx="525.95" cy="81.7305" fill="#ADD1B2" rx="11" ry="11" style="stroke:#181818;stroke-width:1.0;"/><path d="M528.4231,87.8736 Q527.8421,88.1724 527.2029,88.3219 Q526.5638,88.4713 525.8582,88.4713 Q523.3514,88.4713 522.0315,86.8194 Q520.7117,85.1676 520.7117,82.0465 Q520.7117,78.9171 522.0315,77.2652 Q523.3514,75.6134 525.8582,75.6134 Q526.5638,75.6134 527.2112,75.7628 Q527.8587,75.9122 528.4231,76.211 L528.4231,78.9337 Q527.7923,78.3526 527.1988,78.0828 Q526.6053,77.8131 525.9744,77.8131 Q524.6297,77.8131 523.9449,78.8797 Q523.2601,79.9464 523.2601,82.0465 Q523.2601,84.1383 523.9449,85.2049 Q524.6297,86.2716 525.9744,86.2716 Q526.6053,86.2716 527.1988,86.0018 Q527.7923,85.732 528.4231,85.151 Z " fill="#000000"/><text fill="#000000" font-family="sans-serif" font-size="12" font-style="italic" lengthAdjust="spacing" textLength="39" x="564.05" y="78.0216">&#171;hash&#187;</text><text fill="#000000" font-family="sans-serif" font-size="14" lengthAdjust="spacing" textLength="81" x="543.05" y="94.088">systemState</text><line style="stroke:#181818;stroke-width:0.5;" x1="498" x2="640" y1="102.0411" y2="102.0411"/><text fill="#000000" font-family="sans-serif" font-size="14" lengthAdjust="spacing" textLength="132" x="503" y="119.5763">currentSession : int</text><text fill="#000000" font-family="sans-serif" font-size="14" lengthAdjust="spacing" textLength="132" x="503" y="136.0645">endTime : datetime</text><text fill="#000000" font-family="sans-serif" font-size="14" lengthAdjust="spacing" textLength="116" x="503" y="152.5528">timezone : string</text><line style="stroke:#181818;stroke-width:0.5;" x1="498" x2="640" y1="159.5059" y2="159.5059"/></g><!--SRC=[VP11Jy9048Nl_HKBNcZYWPk98KqqI48m1Ymz6KEMxbWsjBjrPr3KzByxIqjH0UVMUQ_xlZST1I_QW22vpA6t3KMQIqIn5OE1wCqlBqQZ6vvGH57GQQphDoJhZimJRnvUzVixSodJjSn0TASMANCGp-wxuYiGF7NK1i5XsApyQ2MkHPACX-9fEdbkrzvdP04i8ZbjCWvB7iQpv8vJzYOefCx_CvJC-MwTMgmahjgdMZbr80dKGX9hf0j0aaLvO2ZLERaAgk1GzX6KndtF-ZYbBQoopiP0n978T9uXYdvKpwt9RXbXFTUxejfGgp7rgJMkhADp_o0WQcjYUDs0IU5tN-OzqE474XGnSRrJOEd6EJ0Kr-_zIG6Zccn_7N-MLl8VdzOS9LV1Dm00]--></g></svg>